# xmcd
#
# Track frame offsets:
#	150
#	17308
#	33937
#	50961
#	84606
#	120469
#	150647
#	178186
#	210007
#	246718
#
# Disc length: 3692 seconds
# Revision: 0
# Processed by: cddbd v1.5.2PL0 Copyright (c) Steve Scherf et al.
# Submitted via: dBpowerAMP V12.0
#
DISCID=7c0e6a0a
DTITLE=Fifty Fifty - Tonight… I'm Dreaming
DYEAR=1998
DGENRE=House
TTITLE0=Tonight… I'm Dreaming [Dave Audé Radio Mix]
TTITLE1=Tonight… I'm Dreaming [Fifty Fifty Radio Mix]
TTITLE2=Tonight… I'm Dreaming [Eric Kupper Radio Mix]
TTITLE3=Tonight… I'm Dreaming [Dave's Dream Vocal]
TTITLE4=Tonight… I'm Dreaming [Fifty Fifty Original Mix]
TTITLE5=Tonight… I'm Dreaming [London Connection's Moet Mix]
TTITLE6=Tonight… I'm Dreaming [Eric Kupper 12"Vocal]
TTITLE7=Tonight… I'm Dreaming [Dave's Rubber Dub]
TTITLE8=Tonight… I'm Dreaming [Amethyst's An'a Gram Dub]
TTITLE9=Tonight… I'm Dreaming [Eric Kupper Dub]
EXTD=
EXTT0=
EXTT1=
EXTT2=
EXTT3=
EXTT4=
EXTT5=
EXTT6=
EXTT7=
EXTT8=
EXTT9=
PLAYORDER=
